<?xml version="1.0" encoding="UTF-8" standalone="no" ?>
<!DOCTYPE svg PUBLIC "-//W3C//DTD SVG 1.1//EN" "http://www.w3.org/Graphics/SVG/1.1/DTD/svg11.dtd">
<svg xmlns="http://www.w3.org/2000/svg" xmlns:xlink="http://www.w3.org/1999/xlink" version="1.1" width="200" height="200" viewBox="0 0 500 500" xml:space="preserve">
<desc>Created with Fabric.js 3.6.3</desc>
<defs>
</defs>
<g transform="matrix(0.5 0 0 0.5 252.249999972507 258.79274999999996)" style=""  ><path fill="#ffffff" opacity="1" d="M22.81-159.52Q7.40-158.90 0.42-156.19Q-6.56-153.48-9.17-146.19Q-11.77-138.89-11.77-122.85L-11.77-122.85L-11.77 88.83Q-11.77 104.87-9.17 112.17Q-6.56 119.46 0.42 122.17Q7.40 124.88 22.81 125.50L22.81 125.50L22.81 134.04Q2.81 132.79-31.36 132.79L-31.36 132.79Q-68.03 132.79-85.94 134.04L-85.94 134.04L-85.94 125.50Q-70.53 124.88-63.65 122.17Q-56.78 119.46-54.17 112.17Q-51.57 104.87-51.57 88.83L-51.57 88.83L-51.57-139.52L-154.28 136.13L-161.16 136.13L-268.67-140.77L-268.67 84.46Q-268.67 100.92-265.75 109.25Q-262.83 117.58-254.81 121.23Q-246.79 124.88-229.91 125.50L-229.91 125.50L-229.91 134.04Q-245.12 132.79-273.46 132.79L-273.46 132.79Q-298.88 132.79-313.05 134.04L-313.05 134.04L-313.05 125.50Q-298.25 124.88-291.06 121.23Q-283.88 117.58-281.17 109.25Q-278.46 100.92-278.46 84.46L-278.46 84.46L-278.46-122.85Q-278.46-138.89-281.06-146.19Q-283.67-153.48-290.65-156.19Q-297.63-158.90-313.05-159.52L-313.05-159.52L-313.05-168.06Q-299.09-166.81-273.46-166.81L-273.46-166.81Q-250.96-166.81-237.00-168.06L-237.00-168.06L-143.24 79.46L-51.57-166.81L-31.36-166.81Q2.81-166.81 22.81-168.06L22.81-168.06L22.81-159.52Z"/><path fill="#ffffff" opacity="1" d="M293.46 134.04Q292.42 120.71 290.02 114.77Q287.63 108.83 283.04 108.83L283.04 108.83Q279.71 108.83 274.29 112.38L274.29 112.38Q261.58 121.33 250.85 127.06Q240.12 132.79 226.37 136.44Q212.62 140.09 195.33 140.09L195.33 140.09Q154.70 140.09 124.18 121.75Q93.65 103.42 76.88 68.52Q60.11 33.62 60.11-14.51L60.11-14.51Q60.11-61.60 77.40-97.85Q94.69-134.10 125.53-154.10Q156.37-174.11 195.74-174.11L195.74-174.11Q221.16-174.11 239.19-166.81Q257.21-159.52 274.29-146.40L274.29-146.40Q278.88-142.64 282.63-142.64L282.63-142.64Q291.38-142.64 293.46-168.06L293.46-168.06L303.25-168.06Q301.59-140.35 301.59-69.93L301.59-69.93L291.79-69.93Q288.67-89.10 286.06-99.72Q283.46-110.35 279.92-117.75Q276.38-125.14 270.33-133.06L270.33-133.06Q257.42-149.73 237.62-158.06Q217.83-166.40 194.91-166.40L194.91-166.40Q167.20-166.40 146.37-148.06Q125.53-129.73 114.07-95.77Q102.61-61.81 102.61-16.18L102.61-16.18Q102.61 30.29 115.11 63.62Q127.61 96.96 149.49 114.25Q171.37 131.54 199.08 131.54L199.08 131.54Q220.33 131.54 240.54 123.42Q260.75 115.29 272.00 99.04L272.00 99.04Q280.75 87.37 284.50 73.73Q288.25 60.08 291.79 31.54L291.79 31.54L301.59 31.54Q301.59 105.08 303.25 134.04L303.25 134.04L293.46 134.04Z"/></g><g transform="matrix(0.4695431472081219 0 0 0.0592033383728436 250.00000000000003 266.5051153189004)"  >
<rect style="stroke: none; stroke-width: 1; stroke-dasharray: none; stroke-linecap: butt; stroke-dashoffset: 0; stroke-linejoin: miter; stroke-miterlimit: 4; fill: rgb(84,84,84); fill-rule: evenodd; opacity: 1;"  x="-393.5" y="-393.5" rx="0" ry="0" width="787" height="787" />
</g>
<g transform="matrix(0.5 0 0 0.5 249.75347226350607 266.8127494429267)" style=""  ><path fill="#ffffff" opacity="1" d="M-150.40 12.76C-150.05 15.40-149.00 15.84-147.96 15.84C-146.96 15.84-145.42 15.64-144.42 15.15C-145.22 14.55-145.47 13.70-145.81 11.36L-149.15-12.49C-149.50-14.63-149.90-16.93-150.50-19.37C-152.49-19.37-154.28-19.32-155.43-19.17C-156.07-16.33-156.62-14.44-157.57-11.80L-165.44 10.42L-174.05-13.69C-174.70-15.53-175.64-17.52-176.74-19.37C-178.93-19.37-180.72-19.12-181.62-18.87C-181.67-16.23-181.87-14.09-182.12-11.75C-182.12-11.75-185.70 12.91-185.70 14.00C-185.70 15.49-185.06 15.84-184.26 15.84C-183.51 15.84-182.22 15.64-181.12 15.15C-181.52 14.85-181.67 14.20-181.67 13.60C-181.67 13.15-181.57 12.36-181.47 11.36L-178.33-11.55L-169.22 12.76C-168.27 15.30-167.38 15.84-166.23 15.84C-165.14 15.84-164.19 15.74-163.29 15.25C-163.29 14.65-162.90 13.20-162.25 11.36L-153.88-11.55Z"/><path fill="#ffffff" opacity="1" d="M-119.22 12.76C-119.22 15.40-118.32 15.84-117.23 15.84C-116.33 15.84-114.79 15.64-113.69 15.15C-114.39 14.55-114.54 13.35-114.54 11.36L-114.54 0.65L-105.28-13.84C-104.08-15.63-103.04-17.52-102.19-19.42C-103.98-19.42-105.48-19.37-106.72-19.22C-108.12-16.43-109.21-14.58-111.00-11.85L-116.33-3.68L-122.11-12.49C-123.65-14.88-125.30-17.32-126.94-19.42C-129.18-19.42-131.32-19.17-132.12-18.92C-129.93-16.13-128.38-13.94-126.99-11.75L-119.22 0.50Z"/><path fill="#ffffff" opacity="1" d=""/><path fill="#ffffff" opacity="1" d="M-56.77-1.99C-56.77-10.70-52.04-16.63-45.27-16.63C-41.23-16.63-38.25-14.48-37.05-11.45C-34.71-11.45-33.27-11.95-33.27-13.34C-33.27-15.63-37.50-19.46-45.07-19.46C-55.33-19.46-61.80-12.04-61.80-1.24C-61.80 8.92-55.63 15.89-45.57 15.89C-40.04 15.89-35.26 13.55-33.02 10.32L-33.76 9.87C-34.11 9.67-34.51 9.47-34.81 9.47C-36.35 9.47-37.70 13.05-45.22 13.05C-52.14 13.05-56.77 6.93-56.77-1.99Z"/><path fill="#ffffff" opacity="1" d="M-17.23-1.39C-17.23 8.87-10.91 15.89-1.59 15.89C8.17 15.89 14.79 8.52 14.79-2.18C14.79-12.44 8.47-19.46-0.90-19.46C-10.61-19.46-17.23-12.09-17.23-1.39ZM-12.20-1.89C-12.20-10.65-7.82-16.63-1.34-16.63C5.23-16.63 9.76-10.55 9.76-1.69C9.76 7.08 5.38 13.05-1.15 13.05C-7.72 13.05-12.20 6.98-12.20-1.89Z"/><path fill="#ffffff" opacity="1" d="M32.87 2.30C32.87 10.42 38.45 15.89 46.71 15.89C55.38 15.89 61.25 10.12 61.25 1.65L61.25-12.49C61.25-14.83 61.15-17.27 60.91-19.37C59.01-19.37 57.07-19.12 56.22-18.92C56.52-16.08 56.57-14.24 56.57-11.75L56.57 2.10C56.57 8.62 52.74 13.05 47.11 13.05C41.43 13.05 37.55 8.57 37.55 2.00L37.55-12.49C37.55-14.83 37.45-17.27 37.20-19.37C35.21-19.37 33.22-19.12 32.37-18.92C32.77-16.08 32.87-14.24 32.87-11.75Z"/><path fill="#ffffff" opacity="1" d="M80.78 12.76C80.78 15.40 81.62 15.84 82.67 15.84C83.51 15.84 84.96 15.64 86.00 15.15C85.51 14.55 85.46 13.35 85.46 11.36L85.46 1.40C86.40 1.35 87.35 1.35 88.40 1.35L91.48 1.35L98.65 12.66C100.25 15.44 101.64 15.84 102.79 15.84C103.83 15.84 105.18 15.64 106.07 15.15C105.03 14.50 104.13 13.25 102.84 11.21L96.11 0.70C100.85-0.74 103.78-4.38 103.78-9.16C103.78-15.13 99.05-19.22 92.03-19.22L84.76-19.22C82.87-19.17 81.07-18.97 80.28-18.77C80.68-15.93 80.78-14.09 80.78-11.60ZM85.36-16.43L91.63-16.43C96.01-16.43 99.00-13.34 99.00-8.86C99.00-4.48 96.11-1.44 91.83-1.44L87.65-1.44C86.90-1.44 86.15-1.44 85.46-1.39L85.46-12.34C85.46-13.69 85.41-15.08 85.36-16.43Z"/><path fill="#ffffff" opacity="1" d="M124.50 7.63C122.11 7.63 120.57 8.32 120.57 9.97C120.57 12.41 124.50 15.89 131.77 15.89C139.59 15.89 144.07 12.11 144.07 6.43C144.07-5.07 125.50-2.33 125.50-10.60C125.50-13.94 128.48-16.63 132.42-16.63C135.75-16.63 138.15-14.53 139.09-11.90C141.58-11.90 143.03-12.29 143.03-13.79C143.03-16.03 139.24-19.46 132.62-19.46C125.20-19.46 121.01-15.48 121.01-10.30C121.01 0.60 139.44-1.99 139.44 7.03C139.44 10.86 136.15 13.05 132.02 13.05C128.19 13.05 125.60 11.01 124.50 7.63Z"/><path fill="#ffffff" opacity="1" d="M181.02-0.89C183.66-0.89 184.11-1.39 184.11-2.03C184.11-2.58 183.96-3.43 183.41-4.03C182.82-3.73 181.62-3.68 179.63-3.68L169.07-3.68C168.32-3.68 167.58-3.68 166.88-3.63L166.88-12.34C166.88-13.74 166.83-15.08 166.73-16.38C167.58-16.43 168.42-16.43 169.37-16.43L182.32-16.43C184.91-16.43 185.36-16.93 185.36-17.62C185.36-18.17 185.21-19.02 184.71-19.66C184.11-19.27 182.87-19.22 180.87-19.22L168.62-19.22C166.28-19.22 163.79-19.12 161.70-18.87C162.10-16.08 162.20-14.14 162.20-11.65L162.20 13.20C162.20 14.25 162.40 15.35 162.65 15.99C165.49 15.69 167.33 15.64 169.82 15.64L182.77 15.64C185.41 15.64 185.85 15.10 185.85 14.45C185.85 13.85 185.70 12.95 185.16 12.31C184.56 12.81 183.36 12.86 181.37 12.86L169.07 12.86C168.32 12.86 167.63 12.86 166.88 12.91L166.88-0.84C167.83-0.89 168.77-0.89 169.82-0.89Z"/></g></svg>