<svg xmlns="http://www.w3.org/2000/svg" width="103.5" height="103.425" version="1.0">
  <path d="m0 0 41.28-41.28L82.8 0 41.28 41.46 0 0" style="fill:#da251d;fill-opacity:1;fill-rule:evenodd;stroke:none" transform="matrix(1.25 0 0 -1.25 0 51.825)"/>
  <path d="M398.00177 757.76575h20.4v-2.1h-20.4v2.1z" style="fill:#1f1a17;fill-opacity:1;fill-rule:nonzero;stroke:none" transform="translate(-355.70177 -711.34075)"/>
  <path d="m0 0 .72.24.72.72.48 1.68.24 1.68v.72l.96-1.92.24-2.16V-.96l-.72-1.68 1.2.72.96.96.72 1.44c1.207-3.593.88-4.381-1.2-7.44L6-6.48l.96.72.24.72v.48l-.24-3.36-.72-2.4-1.2-1.92-1.44-.96-1.44-.72-1.44-.24h-1.2l.48.24.96.72 1.44 1.44L3.6-9.6l-1.2-.72-.96-.24H.48l.48.48.72.96.48 1.44v2.16l-.48-1.2-1.44-.96-.72-.72v2.88L-.96-3.6l-.96 1.44-.96.96v-1.92L-3.84-6v-.96l.24-1.44-.96.48-.72.48-.48.72-.48 1.2v-1.2l-.24-.96.48-1.2.48-.72.72-.96-1.68.24-.72.24-.96.72.96-2.16 1.44-1.68 1.44-.72 1.68-.24-3.6.24-2.4.96-1.68 1.2-.96 1.68-1.44 5.04-.24 1.44.72-.72.72-.96.96-.72 1.68-.24c-2.175 3.78-1.014 4.192-1.68 7.92l.96-.96.48-.72.72-.96.96-.72-.48 1.44v1.2l.24 1.92.24 1.2-.24 1.2.96-.24.48-.48.48-1.2.24-1.44.72-1.44c2.068 3.688.374 6.789 1.92 10.08l.48-2.4 1.44-2.64L0 2.88l.24-1.44L0 0" style="fill:#1f1a17;fill-opacity:1;fill-rule:evenodd;stroke:none" transform="matrix(1.25 0 0 -1.25 55.5 24.525)"/>
  <text transform="matrix(.99773 0 0 1.00228 -355.70177 -711.34075)" x="404.62067" y="795.25513" style="font-size:14.96593475px">
      <tspan style="font-size:12.56265545px;font-variant:normal;font-weight:700;font-stretch:normal;writing-mode:lr-tb;fill:#1f1a17;fill-opacity:1;fill-rule:nonzero;stroke:none;font-family:Arial;-inkscape-font-specification:Arial-BoldMT" x="404.62067" y="795.25513">3</tspan>
    </text>
  <path d="m-9746.9675 618.22734 45.225 45 45-45-45-44.925-45.225 44.925z" style="fill:none;stroke:#1f1a17;stroke-width:.89874995;stroke-linecap:round;stroke-linejoin:round;stroke-miterlimit:10;stroke-dasharray:none;stroke-opacity:1" transform="translate(9753.60523 -566.55234)"/>
</svg>
