<?xml version="1.0" encoding="UTF-8"?>
<svg id="svg4129" xmlns="http://www.w3.org/2000/svg" viewBox="0 0 578.7 578.7">
  <defs>
    <style>
      .cls-1 {
        fill: #000;
      }

      .cls-1, .cls-2 {
        stroke-width: 0px;
      }

      .cls-2 {
        fill: #c1121c;
      }
    </style>
  </defs>
  <path id="bord_rouge" data-name="bord rouge" class="cls-2" d="M289.3,0C130,0,0,130,0,289.4s130,289.4,289.4,289.4,289.4-130,289.4-289.4S448.7,0,289.3,0h0ZM289.3,80.2c116,0,209.1,93.2,209.1,209.1s-93.2,209.1-209.1,209.1-209.1-93.2-209.1-209.1,93.2-209.1,209.1-209.1h0Z"/>
  <g id="Ebene_9" data-name="Ebene 9">
    <g id="g3990">
      <g id="g3992">
        <path id="path4008" class="cls-1" d="M290.51,211.83c-.95,0-1.95.35-2.68.51-1.49.33-2.25,3.73-2.79,5.5-.8-.27-1.46-.37-2.37-.16-2.91.64-5.32,2.42-.64,5,.14.08.33.16.56.26-.2,3.53.36,8.4.73,9.26.49,1.13,3.88,2.43,5,3.72,1.13,1.29-.16,4.19-.49,5.49-.32,1.29-5.16,7.11-7.26,9.05-2.09,1.94-5,3.72-7.74,5.01-2.74,1.29-3.71.96-13.06,3.23-2.51.6-2.11,0-4.2,2.27-1.92,2.07-3.44,3.86-4.55,4.89-8.05,3.11-20.27,5.99-26.23,7.19-2.85-1.39-5.72-2.2-7.72-2.2-8.72,0-18.9,1.57-26.72,2.58-10.9.59-18.33-.2-26.03-6.48-.54-1.29-.11-2.25-.11-3.33s1.29-6.02,1.18-7.2c-.11-1.18-1.18-1.4-2.36-1.4-1.06,0-3.16,3.28-5.2,6.29-3.79-5.81-11.94-16.67-21.31-20.57-5.84-2.43-12.9-2.89-15.93-4.4-2.37-1.19-5.15-4.02-6.89-3.96-.49.01-.89.25-1.19.81-1.24,2.38,1.36,5.06.05,7.8-3.58,7.46-11.4,30.23-11.4,31.24s4.09,3.6,5.6,3.6c.57,0,2.34-1.23,4.47-2.83,3.5.37,3.72.4,9.11.61l6.03.11c1,2.63,2.49,7.4,3.78,12.94-.86.95-1.87,2.36-1.87,3.27-.29,3.59,1.29,4.89,3.78,5.26.78,3.6,1.44,6.74,1.91,9.03-4.87,9.42-10.37,18.01-10.83,19.22-.5,1.34-.57.68-.83,5.2-.39,6.9,2.17,24.99,2.51,26.12.36,1.16,2.34,3.34,2.52,4.01.16.67,1,3.35,2.34,4.52,1.34,1.17,4.52,1.84,4.52,1.84,0,0,1.84-1.34,2.34-3.18.5-1.84,1-5.19,1-5.19l-3.34-2.84s.66-.34-.51-1.51c-1.17-1.17-2.34-3.35-2.34-4.02s-.5-13.56,0-15.23c.51-1.67,3.62-6.76,5.01-8.38,1.02-1.18,2.67-1.98,4.13-2.51.26,1.62.5,3.21.56,3.85.5,5.19,3.52,14.21,4.69,15.89,1.17,1.67,1.33,3.86,1.33,6.54s1.01,11.56.17,12.73c-.84,1.17-3.19,2.01-3.02,5.52.07,1.51.17,3.7,2.01,2.86,1.84-.84,6.86-1.35,6.86-1.35l1.34-1.51s-.5-3.67-.5-5.01,1.51-1.88,1.68-3.39c.16-1.51-.96-3.63-1.67-6.69-.67-2.84-.68-4.83-.85-7.51-.16-2.68.17-11.55.17-15.91,0-3.28,1.9-11.18,2.83-14.9,3.96,1.39,7.43,3.16,14.06,3.52,6.35.33,16.77-.85,19.39-1.84,6-2.27,11.58-4.15,15.92-5.44,1.33,2.48,3.15,6.02,3.15,6.91,0,1.4.52,15.2.35,16.59-.17,1.4-1,5.45-1.92,7.69-3.32,8.03-6.98,13.45-8.02,15.19-1.05,1.75-3.15,4.54-3.15,4.54,0,0-1.22,1.75-1.57,1.92-.35.18-2.96,5.06-2.45,5.94.53.87,2.26,1.39,3.66,1.39s4.19-.17,5.76-.87c0,0,.87-2.09,1.04-2.97.18-.87.18-2.09.88-3.31.7-1.23,1.74-2.28,1.74-3.5s1.04-2.62,1.74-5.24c.7-2.62,10.13-12.58,11.17-13.62,1.05-1.05.35-2.8.35-4.2s0-4,.18-7.15c0-.04,0-.07,0-.12.71.99,1.29,1.73,1.62,2.06,2.02,2.02,5.7,4.37,8.88,6.71,2.73,2.01,3.5,6.31,1.75,9.63-1.96,3.71-4.13,12.47-2.3,15.58,1.27,2.14,6.99,8.2,6.99,8.2,0,0,2.11-1.97,3.08-3.51,1.71-2.73,1-7.48,1-7.48,0,0-2.55.34-3.33-5.99-.41-3.34,2.84-12.01,4.36-14.04,1.51-2.02,1.01-4.55.25-6.32-.76-1.77-5.22-4.32-6.62-9.07-.92-3.15-.24-10.12,2.03-17.7,1.75-5.85,1.18-15.91-.8-22.5,1.18-.15,2.43.13,3.37,1.44,1.75,2.42,1.17,14.01,1.16,16.04-.04,11.54,1.39,17.66,2.64,22.04,2.21,7.72,5.75,9.89,8.08,11.64,2.33,1.75,5.71,2.06,6.99.73.87-.9.91-1.56-.29-3.5-1.32-2.14-1.83-2.66-2.52-6.85-.31-1.88-.56-5.56-.83-9.78l16.49,10.26c5.01-9.1,14.69-15.27,25.8-15.27s21.31,6.5,26.2,16.01h77.56c4.88-9.5,14.78-16.01,26.19-16.01s21.45,6.59,26.3,16.21h25.25v-8.01h-6.04v-42.35h-157.39v-21.54h-5.92s.08-7.14-.81-10.82c-1.29-5.33-3.55-10.34-5.8-12.92-.79-.9-.54-2.68-.17-4.06,1.8-.28,3.95-.85,4.19-1.43-.93-1.8-2.36-1.74-3.37-2.12.16-6.47.61-7.93-.98-9.67-1.61-1.78-1.73-1.13-5.22-1.77-2.18-.4-4.07-.87-5.65-.84h0ZM275.87,265.6c.49-.03.95.07,1.31.38.33.28.22,2.18-.06,4.53-6.14,5.13-16.34,13.79-17.02,15.29-.98,2.15-2.34,10.73-2.34,10.73l-6.67-4.39c-.58-2.58-1.17-4.02-2.9-8.16-1.46-3.51-5.23-6.55-10.03-7.13-3.66-.45-4.95.12-6.45,1.06-1.09-1.13-2.38-2.16-3.78-3.07,6.65-1.67,14.92-3.76,16.83-4.33,1.61-.49,4.36-1.33,6.69-2.06.54.37,1.24.65,2.02.76,2.26.33,4.46-.66,6.78-1.29,1.77-.49,3.55-1.45,6.13-.64,2.69.84,5.64-.17,6.93-.81.81-.41,1.74-.81,2.56-.86h0ZM121.97,265.74c1.63.06,1.97,2.71,3.47,5.9-.92.06-1.83.08-2.65.06-1.35-.05-4.94-.15-9.11-.56,2.88-2.22,5.84-4.52,7.17-5.13.43-.19.8-.28,1.12-.26h0Z"/>
        <path id="path4010" class="cls-1" d="M321.79,340.6c0,14.14-11.45,25.62-25.59,25.62s-25.59-11.47-25.59-25.62,11.46-25.62,25.59-25.62,25.59,11.47,25.59,25.62Z"/>
        <path id="path4012" class="cls-1" d="M451.74,340.6c0,14.14-11.45,25.62-25.58,25.62s-25.59-11.47-25.59-25.62,11.45-25.62,25.59-25.62,25.58,11.47,25.58,25.62Z"/>
      </g>
    </g>
  </g>
</svg>